# xmcd
#
# Track frame offsets:
#  150
#  14236
#  28983
#  40674
#  56962
#  69380
#  83625
#  93176
#  103431
#  113274
#  131121
#  142832
#  154069
#  169088
#  186708
#  199370
#  214727
#
# Disc length: 3030 seconds
#
# Revision: 0
# Processed by: cddbd v1.5.1PL0 Copyright (c) Steve Scherf et al.
# Submitted via: AltoMP3_Maker 3.0
#
DISCID=fa0bd411
DTITLE=Ray Kernaghan - Ray Kernaghan Country - Silver Anniversary Edition
DYEAR=1900
DGENRE=
TTITLE0=Just For a While
TTITLE1=Wedding Bells
TTITLE2=When It's Springtime in the Rockies
TTITLE3=There's a Bridle Hanging on the Wall
TTITLE4=The Luggage Van Ahead
TTITLE5=Daisy a Day
TTITLE6=Jimmy Brown the Newsboy
TTITLE7=Walkin' the Floor Over You
TTITLE8=The Wreck of the Old 97
TTITLE9=Suvla Bay
TTITLE10=Heartaches by the Number
TTITLE11=Stolen Moments
TTITLE12=Blue Side of Lonesome
TTITLE13=When the Rain Tumbles Down in July
TTITLE14=My Son Calls Another Man Daddy
TTITLE15=The Drover's Wife
TTITLE16=Irene Goodnight
EXTD=
EXTT0=
EXTT1=
EXTT2=
EXTT3=
EXTT4=
EXTT5=
EXTT6=
EXTT7=
EXTT8=
EXTT9=
EXTT10=
EXTT11=
EXTT12=
EXTT13=
EXTT14=
EXTT15=
EXTT16=
PLAYORDER=
